#Comment line ignore any data following # character 
#Hierarchical Translation and Rotation (.htr) file 
[Header]	
#Header keywords are followed by a single value 
FileType HTR		#Single word string
DataType HTRS		#Translation followed by rotation and scale data
FileVersion 1		#integer
NumSegments 64		#integer
NumFrames 3		#integer
DataFrameRate 30		#integer, data frame rate in this file
EulerRotationOrder ZYX
CalibrationUnits mm
RotationUnits Degrees
GlobalAxisofGravity Y
BoneLengthAxis Y
ScaleFactor 1.00
[SegmentNames&Hierarchy]
#CHILD	PARENT
Pinger_Root GLOBAL
Pelvis Pinger_Root
L_Hip Pelvis
R_Hip Pelvis
Rear_Leg01 Pelvis
Spine1 Pelvis
L_Leg01 L_Hip
L_Leg02 L_Leg01
L_Leg03 L_Leg02
L_Foot L_Leg03
L_Toe1_01 L_Foot
L_Toe2_01 L_Foot
L_Toe3_01 L_Foot
planeAlignerLeft L_Foot
L_Toe1_02 L_Toe1_01
L_Toe1_03 L_Toe1_02
L_Toe2_02 L_Toe2_01
L_Toe2_03 L_Toe2_02
L_Toe3_02 L_Toe3_01
L_Toe3_03 L_Toe3_02
planeLockWeightLeft planeAlignerLeft
R_Leg01 R_Hip
R_Leg02 R_Leg01
R_Leg03 R_Leg02
R_Foot R_Leg03
planeAlignerRight R_Foot
R_Toe1_01 R_Foot
R_Toe2_01 R_Foot
R_Toe3_01 R_Foot
planeLockWeightRight planeAlignerRight
R_Toe1_02 R_Toe1_01
R_Toe1_03 R_Toe1_02
R_Toe2_02 R_Toe2_01
R_Toe2_03 R_Toe2_02
R_Toe3_02 R_Toe3_01
R_Toe3_03 R_Toe3_02
Rear_Leg02 Rear_Leg01
Rear_Leg03 Rear_Leg02
Rear_Leg04 Rear_Leg03
Rear_Foot Rear_Leg04
planeAlignerCenter Rear_Foot
Rear_Toe1_01 Rear_Foot
Rear_Toe2_01 Rear_Foot
Rear_Toe3_01 Rear_Foot
planeLockWeightCenter planeAlignerCenter
Rear_Toe1_02 Rear_Toe1_01
Rear_Toe1_03 Rear_Toe1_02
Rear_Toe2_02 Rear_Toe2_01
Rear_Toe2_03 Rear_Toe2_02
Rear_Toe3_02 Rear_Toe3_01
Rear_Toe3_03 Rear_Toe3_02
Back_Bone Spine1
Head Spine1
Motor_Bone Back_Bone
Ping_Mechanism Back_Bone
BN_LookIK Head
bottomMouth Head
L_Mouth01 Head
L_mouthFront Head
mouthGun Head
R_Mouth01 Head
R_mouthFront Head
TopMouth Head
weapon_bone Head
[BasePosition]
#SegmentName Tx, Ty, Tz, Rx, Ry, Rz, BoneLength
Pinger_Root 0.000000 0.000000 0.000000 -90.000000 0.000000 0.000000 10.000000 
Pelvis 0.000000 0.000000 0.000000 0.000000 0.000000 0.000000 10.000000 
L_Hip 0.000000 0.000000 0.000000 0.000000 0.000000 0.000000 10.000000 
R_Hip 0.000000 0.000000 0.000000 0.000000 0.000000 0.000000 10.000000 
Rear_Leg01 0.000000 0.000000 0.000000 0.000000 0.000000 0.000000 10.000000 
Spine1 0.000000 0.000000 0.000000 0.000000 0.000000 0.000000 10.000000 
L_Leg01 0.000000 0.000000 0.000000 0.000000 0.000000 0.000000 10.000000 
L_Leg02 0.000000 0.000000 0.000000 0.000000 0.000000 0.000000 10.000000 
L_Leg03 0.000000 0.000000 0.000000 0.000000 0.000000 0.000000 10.000000 
L_Foot 0.000000 0.000000 0.000000 0.000000 0.000000 0.000000 10.000000 
L_Toe1_01 0.000000 0.000000 0.000000 0.000000 0.000000 0.000000 10.000000 
L_Toe2_01 0.000000 0.000000 0.000000 0.000000 0.000000 0.000000 10.000000 
L_Toe3_01 0.000000 0.000000 0.000000 0.000000 0.000000 0.000000 10.000000 
planeAlignerLeft 0.000000 0.000000 0.000000 0.000000 0.000000 0.000000 10.000000 
L_Toe1_02 0.000000 0.000000 0.000000 0.000000 0.000000 0.000000 10.000000 
L_Toe1_03 0.000000 0.000000 0.000000 0.000000 0.000000 0.000000 10.000000 
L_Toe2_02 0.000000 0.000000 0.000000 0.000000 0.000000 0.000000 10.000000 
L_Toe2_03 0.000000 0.000000 0.000000 0.000000 0.000000 0.000000 10.000000 
L_Toe3_02 0.000000 0.000000 0.000000 0.000000 0.000000 0.000000 10.000000 
L_Toe3_03 0.000000 0.000000 0.000000 0.000000 0.000000 0.000000 10.000000 
planeLockWeightLeft 0.000000 0.000000 0.000000 0.000000 0.000000 0.000000 10.000000 
R_Leg01 0.000000 0.000000 0.000000 0.000000 0.000000 0.000000 10.000000 
R_Leg02 0.000000 0.000000 0.000000 0.000000 0.000000 0.000000 10.000000 
R_Leg03 0.000000 0.000000 0.000000 0.000000 0.000000 0.000000 10.000000 
R_Foot 0.000000 0.000000 0.000000 0.000000 0.000000 0.000000 10.000000 
planeAlignerRight 0.000000 0.000000 0.000000 0.000000 0.000000 0.000000 10.000000 
R_Toe1_01 0.000000 0.000000 0.000000 0.000000 0.000000 0.000000 10.000000 
R_Toe2_01 0.000000 0.000000 0.000000 0.000000 0.000000 0.000000 10.000000 
R_Toe3_01 0.000000 0.000000 0.000000 0.000000 0.000000 0.000000 10.000000 
planeLockWeightRight 0.000000 0.000000 0.000000 0.000000 0.000000 0.000000 10.000000 
R_Toe1_02 0.000000 0.000000 0.000000 0.000000 0.000000 0.000000 10.000000 
R_Toe1_03 0.000000 0.000000 0.000000 0.000000 0.000000 0.000000 10.000000 
R_Toe2_02 0.000000 0.000000 0.000000 0.000000 0.000000 0.000000 10.000000 
R_Toe2_03 0.000000 0.000000 0.000000 0.000000 0.000000 0.000000 10.000000 
R_Toe3_02 0.000000 0.000000 0.000000 0.000000 0.000000 0.000000 10.000000 
R_Toe3_03 0.000000 0.000000 0.000000 0.000000 0.000000 0.000000 10.000000 
Rear_Leg02 0.000000 0.000000 0.000000 0.000000 0.000000 0.000000 10.000000 
Rear_Leg03 0.000000 0.000000 0.000000 0.000000 0.000000 0.000000 10.000000 
Rear_Leg04 0.000000 0.000000 0.000000 0.000000 0.000000 0.000000 10.000000 
Rear_Foot 0.000000 0.000000 0.000000 0.000000 0.000000 0.000000 10.000000 
planeAlignerCenter 0.000000 0.000000 0.000000 0.000000 0.000000 0.000000 10.000000 
Rear_Toe1_01 0.000000 0.000000 0.000000 0.000000 0.000000 0.000000 10.000000 
Rear_Toe2_01 0.000000 0.000000 0.000000 0.000000 0.000000 0.000000 10.000000 
Rear_Toe3_01 0.000000 0.000000 0.000000 0.000000 0.000000 0.000000 10.000000 
planeLockWeightCenter 0.000000 0.000000 0.000000 0.000000 0.000000 0.000000 10.000000 
Rear_Toe1_02 0.000000 0.000000 0.000000 0.000000 0.000000 0.000000 10.000000 
Rear_Toe1_03 0.000000 0.000000 0.000000 0.000000 0.000000 0.000000 10.000000 
Rear_Toe2_02 0.000000 0.000000 0.000000 0.000000 0.000000 0.000000 10.000000 
Rear_Toe2_03 0.000000 0.000000 0.000000 0.000000 0.000000 0.000000 10.000000 
Rear_Toe3_02 0.000000 0.000000 0.000000 0.000000 0.000000 0.000000 10.000000 
Rear_Toe3_03 0.000000 0.000000 0.000000 0.000000 0.000000 0.000000 10.000000 
Back_Bone 0.000000 0.000000 0.000000 0.000000 0.000000 0.000000 10.000000 
Head 0.000000 0.000000 0.000000 0.000000 0.000000 0.000000 10.000000 
Motor_Bone 0.000000 0.000000 0.000000 0.000000 0.000000 0.000000 10.000000 
Ping_Mechanism 0.000000 0.000000 0.000000 0.000000 0.000000 0.000000 10.000000 
BN_LookIK 0.000000 0.000000 0.000000 0.000000 0.000000 0.000000 10.000000 
bottomMouth 0.000000 0.000000 0.000000 0.000000 0.000000 0.000000 10.000000 
L_Mouth01 0.000000 0.000000 0.000000 0.000000 0.000000 0.000000 10.000000 
L_mouthFront 0.000000 0.000000 0.000000 0.000000 0.000000 0.000000 10.000000 
mouthGun 0.000000 0.000000 0.000000 0.000000 0.000000 0.000000 10.000000 
R_Mouth01 0.000000 0.000000 0.000000 0.000000 0.000000 0.000000 10.000000 
R_mouthFront 0.000000 0.000000 0.000000 0.000000 0.000000 0.000000 10.000000 
TopMouth 0.000000 0.000000 0.000000 0.000000 0.000000 0.000000 10.000000 
weapon_bone 0.000000 0.000000 0.000000 0.000000 0.000000 0.000000 10.000000 
#Beginning of Data. Separated by tabs
#Fr	Tx	Ty	Tz	Rx	Ry	Rz	SF
[Pinger_Root]
11 0.000000 0.000000 0.000000 -0.000075 -0.000000 -0.000025 0.000000
12 0.000000 0.000000 0.000000 -0.000075 -0.000001 -2.265392 0.000000
13 0.000000 0.000000 0.000000 -0.000076 -0.000003 -4.545445 0.000000
[Pelvis]
11 33.051472 1086.734985 4403.837891 121.963547 -88.756203 -144.030624 4536.063477
12 -75.582901 1128.848145 4418.299805 139.536118 -85.938515 -162.115036 4560.853027
13 -188.865906 1149.005737 4415.824707 147.146332 -82.943085 -170.331482 4566.770508
[L_Hip]
11 5.766392 125.831482 872.656799 150.614075 -60.512363 134.025436 881.701050
12 5.766392 125.831482 872.656799 148.504745 -62.898495 136.497650 881.701050
13 5.766392 125.831482 872.656799 146.687286 -64.969864 138.565094 881.701050
[R_Hip]
11 5.765438 125.836372 -872.654907 34.108021 65.602600 122.205620 881.699829
12 5.765438 125.836372 -872.654907 31.341686 73.645943 121.025284 881.699829
13 5.765438 125.836372 -872.654907 34.849369 77.287117 125.726273 881.699829
[Rear_Leg01]
11 -192.298416 -925.602966 -0.001907 157.251099 12.015594 -154.742447 945.367432
12 -192.298416 -925.602966 -0.001907 154.069519 12.249539 -154.179138 945.367432
13 -192.298416 -925.602966 -0.001907 151.029419 12.298199 -154.188980 945.367432
[Spine1]
11 290.604584 5.007505 0.000477 7.003956 3.422458 25.270533 290.647736
12 290.604584 5.007505 0.000477 6.317153 7.142831 26.934164 290.647736
13 290.604584 5.007505 0.000477 5.732715 10.886289 28.571726 290.647736
[L_Leg01]
11 761.932007 -0.002384 -0.069261 26.467371 -11.179663 -26.654446 761.932068
12 761.932007 -0.002384 -0.069261 27.994314 -6.799326 -31.340092 761.932068
13 761.932007 -0.002384 -0.069261 27.908016 -3.499481 -31.410299 761.932068
[L_Leg02]
11 1441.140503 -0.000954 -0.000715 2.998052 0.030772 -121.702156 1441.140503
12 1441.140503 -0.000954 -0.000715 3.265589 0.167861 -117.045685 1441.140503
13 1441.140503 -0.000954 -0.000715 3.830368 0.367146 -117.953323 1441.140503
[L_Leg03]
11 1686.963989 -0.000715 -0.000954 -0.049261 0.022276 123.800034 1686.963989
12 1686.963989 -0.000715 -0.000954 -0.059877 0.028879 126.370087 1686.963989
13 1686.963989 -0.000715 -0.000954 -0.070196 0.035958 128.942719 1686.963989
[L_Foot]
11 3041.570068 -30.715107 11.297464 0.698785 13.381547 56.901085 3041.746094
12 3041.570068 -30.715107 11.297464 0.800547 13.483187 55.661591 3041.746094
13 3041.570068 -30.715107 11.297464 0.756231 13.040763 55.693680 3041.746094
[L_Toe1_01]
11 -188.216690 -224.732346 -21.137953 93.903419 -6.865331 -174.393997 293.899567
12 -188.216690 -224.732346 -21.137953 94.055702 -6.858727 -176.444748 293.899567
13 -188.216690 -224.732346 -21.137953 94.133255 -6.856788 -177.027939 293.899567
[L_Toe2_01]
11 200.746536 -219.926590 148.838394 -91.043129 -27.049467 -49.889900 332.896027
12 200.746536 -219.926590 148.838394 -92.105789 -27.728380 -46.860466 332.896027
13 200.746536 -219.926590 148.838394 -92.683235 -28.043604 -44.795536 332.896027
[L_Toe3_01]
11 188.832520 -219.859131 -191.078659 -99.334007 14.678386 -64.598335 347.140900
12 188.832520 -219.859131 -191.078659 -98.812447 15.499349 -61.275433 347.140900
13 188.832520 -219.859131 -191.078659 -98.508934 15.902298 -59.005711 347.140900
[planeAlignerLeft]
11 32.067261 -552.837891 101.095886 169.306686 -76.298271 89.968506 562.919556
12 32.994087 -514.601074 101.102058 169.306671 -76.298309 89.968575 525.475464
13 37.299522 -495.664429 101.104202 169.298264 -76.298134 90.652611 507.244019
[L_Toe1_02]
11 413.761139 0.000477 0.000000 0.001384 -25.962185 0.001384 413.761139
12 413.761139 0.000477 0.000000 0.001384 -25.957108 0.001384 413.761139
13 413.761139 0.000477 0.000000 0.001384 -25.952036 0.001384 413.761139
[L_Toe1_03]
11 464.317322 0.000358 -0.000089 0.003865 54.641323 0.003865 464.317322
12 464.317322 0.000358 -0.000089 0.003961 55.525204 0.003961 464.317322
13 464.317322 0.000358 -0.000089 0.004062 56.409180 0.004062 464.317322
[L_Toe2_02]
11 342.235809 -0.000477 0.000238 0.001185 -73.849014 0.001185 342.235809
12 342.235809 -0.000477 0.000238 0.001184 -74.960449 0.001184 342.235809
13 342.235809 -0.000477 0.000238 0.001183 -75.238365 0.001183 342.235809
[L_Toe2_03]
11 420.210846 -0.000715 0.000000 -0.097796 89.313576 -0.094299 420.210846
12 420.210846 -0.000715 0.000000 -179.977280 87.308121 -179.973785 420.210846
13 420.210846 -0.000715 0.000000 -179.985703 85.894592 -179.982208 420.210846
[L_Toe3_02]
11 329.270111 0.000954 0.000000 0.001177 -81.658134 0.001177 329.270111
12 329.270111 0.000954 0.000000 0.001176 -82.543571 0.001176 329.270111
13 329.270111 0.000954 0.000000 0.001176 -82.794075 0.001176 329.270111
[L_Toe3_03]
11 439.137451 -0.001907 0.000954 -179.997757 73.562653 -179.994217 439.137451
12 439.137451 -0.001907 0.000954 -179.998611 69.046188 -179.995056 439.137451
13 439.137451 -0.001907 0.000954 179.990570 66.940414 179.997696 439.137451
[planeLockWeightLeft]
11 999.999146 0.098267 0.076155 -0.011826 -0.004376 0.005620 999.999146
12 999.999146 0.098267 0.076154 -0.011826 -0.004376 0.005620 999.999146
13 999.999146 0.098267 0.076154 -0.011826 -0.004376 0.005620 999.999146
[R_Leg01]
11 761.455627 -0.001907 -0.000358 94.377892 -32.930103 56.057110 761.455688
12 761.455627 -0.001907 -0.000358 83.854027 -40.041214 69.882813 761.455688
13 761.455627 -0.001907 -0.000358 87.284470 -44.275459 74.839462 761.455688
[R_Leg02]
11 1441.140625 0.000000 -0.000238 -2.020212 -0.025468 -123.670456 1441.140625
12 1441.140625 0.000000 -0.000238 -1.326974 0.102872 -119.907249 1441.140625
13 1441.140625 0.000000 -0.000238 1.237951 -0.201735 -121.524940 1441.140625
[R_Leg03]
11 1686.963989 0.000954 0.001431 0.050445 -0.022677 123.867302 1686.963989
12 1686.963989 0.000954 0.001431 0.031917 -0.011711 118.490356 1686.963989
13 1686.963989 0.000954 0.001431 0.018537 -0.007864 115.976051 1686.963989
[R_Foot]
11 3041.560059 -30.531288 -11.204481 -3.228738 -24.132940 56.198387 3041.734131
12 3041.560059 -30.531288 -11.204481 2.353911 -24.170475 53.800308 3041.734131
13 3041.560059 -30.531288 -11.204481 10.125979 -24.346422 52.736305 3041.734131
[planeAlignerRight]
11 -115.805023 -623.428223 -374.170105 -24.615623 -71.710045 -76.886810 736.258667
12 -99.630348 -703.583740 -345.829651 -26.131565 -75.989998 -74.507225 790.287537
13 -58.053135 -739.812622 -296.771362 -44.008915 -78.915070 -53.106602 799.228455
[R_Toe1_01]
11 -188.383347 -224.864899 21.052242 76.233498 6.631725 -169.725220 294.101532
12 -188.383347 -224.864899 21.052242 80.769753 6.701906 -164.830765 294.101532
13 -188.383347 -224.864899 21.052242 83.972359 1.794723 -158.424622 294.101532
[R_Toe2_01]
11 200.637817 -220.002121 -148.787384 -89.158951 31.807283 -61.294022 332.857574
12 200.637817 -220.002121 -148.787384 -91.075706 26.505575 -62.541611 332.857574
13 200.637817 -220.002121 -148.787384 -101.374863 25.383169 -72.747063 332.857574
[R_Toe3_01]
11 188.606735 -220.092957 191.126343 -70.248535 -5.913260 -78.982925 347.192566
12 188.606735 -220.092957 191.126343 -70.504143 -9.592406 -79.370811 347.192566
13 188.606735 -220.092957 191.126343 -79.027733 -2.305294 -77.003235 347.192566
[planeLockWeightRight]
11 999.999390 0.000277 0.075854 -0.011823 -0.004379 -0.000027 999.999390
12 999.998840 0.000305 0.075836 -0.011823 -0.004379 -0.000027 999.998901
13 740.738525 -0.000305 0.076075 -0.011823 -0.004379 -0.000027 740.738525
[R_Toe1_02]
11 413.762085 0.000477 -0.000119 0.001390 -25.159481 0.001390 413.762085
12 413.762085 0.000477 -0.000119 0.001387 -25.525875 0.001387 413.762085
13 413.762085 0.000477 -0.000119 0.001417 -21.908369 0.001417 413.762085
[R_Toe1_03]
11 464.317810 0.000000 0.001088 0.005446 65.112045 0.005446 464.317810
12 464.317810 0.000000 0.001088 0.004964 62.646774 0.004964 464.317810
13 464.317810 0.000000 0.001088 -0.012285 83.744583 -0.008783 464.317810
[R_Toe2_02]
11 342.234741 -0.000954 0.000238 0.001214 -60.340984 0.001214 342.234741
12 342.234741 -0.000954 0.000238 0.001236 -53.504917 0.001236 342.234741
13 342.234741 -0.000954 0.000238 0.001199 -66.161514 0.001199 342.234741
[R_Toe2_03]
11 420.210846 0.000715 -0.000268 -0.004129 61.371544 -0.000520 420.210846
12 420.210846 0.000715 -0.000268 -0.003594 51.462914 0.000110 420.210846
13 420.210846 0.000715 -0.000268 -0.005353 71.532120 -0.001810 420.210846
[R_Toe3_02]
11 329.270355 -0.000477 -0.000954 -0.000583 -71.378784 -0.000583 329.270355
12 329.270355 -0.000477 -0.000954 -0.002366 -68.108383 -0.002366 329.270355
13 329.270355 -0.000477 -0.000954 0.001183 -75.703957 0.001183 329.270355
[R_Toe3_03]
11 439.137939 0.000238 0.001431 0.009654 76.034203 0.009654 439.137939
12 439.137939 0.000238 0.001431 0.006720 69.882736 0.006720 439.137939
13 439.137939 0.000238 0.001431 -0.019754 86.341415 -0.016256 439.137939
[Rear_Leg02]
11 1162.777710 -0.029802 0.005960 0.220088 -2.978835 -115.417847 1162.777710
12 1162.777710 -0.029802 0.005960 0.014920 -2.989160 -111.333244 1162.777710
13 1162.777710 -0.029802 0.005960 -0.095129 -2.987292 -109.165436 1162.777710
[Rear_Leg03]
11 607.192505 -0.013351 -0.073195 0.006527 -0.001946 61.414139 607.192505
12 607.192505 -0.013351 -0.073195 0.006555 -0.001845 59.648151 607.192505
13 607.192505 -0.013351 -0.073195 0.006570 -0.001793 58.743782 607.192505
[Rear_Leg04]
11 995.874512 -0.020504 -0.011921 -0.039707 -0.017172 52.497276 995.874573
12 995.874512 -0.020504 -0.011921 -0.039241 -0.018211 49.483608 995.874573
13 995.874512 -0.020504 -0.011921 -0.038985 -0.018753 47.893082 995.874573
[Rear_Foot]
11 3096.176270 -0.067472 -0.041425 -89.107704 87.578285 107.417053 3096.176270
12 3096.176270 -0.067472 -0.041425 -63.575020 87.294914 133.967239 3096.176270
13 3096.176270 -0.067472 -0.041425 -60.593060 87.231049 137.710709 3096.176270
[planeAlignerCenter]
11 -3.219711 -15.135192 -707.160156 12.236368 -0.341833 179.832367 707.329468
12 1.038793 -15.211487 -669.164734 12.240772 -0.001471 179.998184 669.338379
13 17.787220 -15.510255 -654.528015 12.278495 1.453257 -179.467285 654.953308
[Rear_Toe1_01]
11 0.653352 83.966492 -371.173737 0.760808 36.760567 90.607529 380.553192
12 0.653352 83.966492 -371.173737 0.256633 33.921745 90.389870 380.553192
13 0.653352 83.966492 -371.173737 -1.753026 32.885162 89.463478 380.553192
[Rear_Toe2_01]
11 178.200760 -294.826019 -362.060547 -8.060535 30.928122 -66.937927 499.765686
12 178.200760 -294.826019 -362.060547 -7.931559 28.670071 -66.497124 499.765686
13 178.200760 -294.826019 -362.060547 -6.520404 26.985411 -64.694397 499.765686
[Rear_Toe3_01]
11 -153.359680 -308.780914 -362.060852 3.145822 29.799044 -112.973869 499.952881
12 -153.359680 -308.780914 -362.060852 3.661830 28.013712 -112.413338 499.952881
13 -153.359680 -308.780914 -362.060852 5.301799 27.995472 -110.501823 499.952881
[planeLockWeightCenter]
11 1000.000122 0.000000 0.076337 -0.011814 -0.004373 -0.000015 1000.000122
12 1000.000122 0.000000 0.076343 -0.011814 -0.004373 -0.000015 1000.000122
13 1000.000122 0.000000 0.076350 -0.011814 -0.004373 -0.000015 1000.000122
[Rear_Toe1_02]
11 379.707825 0.194073 0.000477 0.001334 -33.160088 0.001334 379.707855
12 379.707825 0.194073 0.000477 0.001334 -33.296040 0.001334 379.707855
13 379.707825 0.194073 0.000477 0.001333 -33.431999 0.001333 379.707855
[Rear_Toe1_03]
11 500.129700 0.165701 0.000119 -0.004237 62.727821 -0.000639 500.129761
12 500.129700 0.165701 0.000119 -0.004743 67.617638 -0.001179 500.129761
13 500.129700 0.165701 0.000119 0.006549 69.352631 0.006549 500.129761
[Rear_Toe2_02]
11 340.494507 0.000238 -0.000954 0.001189 -71.656059 0.001189 340.494507
12 340.494507 0.000238 -0.000954 0.001188 -72.230484 0.001188 340.494507
13 340.494507 0.000238 -0.000954 0.001188 -71.979652 0.001188 340.494507
[Rear_Toe2_03]
11 433.103577 0.000000 0.000238 0.007782 72.651451 0.007782 433.103546
12 433.103577 0.000000 0.000238 0.008213 73.568832 0.008213 433.103546
13 433.103577 0.000000 0.000238 0.008016 73.161819 0.008016 433.103546
[Rear_Toe3_02]
11 340.494141 -0.000358 -0.000477 0.001194 -68.762688 0.001194 340.494171
12 340.494141 -0.000358 -0.000477 0.001192 -69.655571 0.001192 340.494171
13 340.494141 -0.000358 -0.000477 0.001191 -70.139748 0.001191 340.494171
[Rear_Toe3_03]
11 433.103577 0.001431 -0.000238 0.006260 68.387199 0.006260 433.103546
12 433.103577 0.001431 -0.000238 0.006545 69.338036 0.006545 433.103546
13 433.103577 0.001431 -0.000238 0.006857 70.288963 0.006857 433.103546
[Back_Bone]
11 1312.175781 -701.934692 0.000954 0.000023 -0.000007 -85.606667 1488.125488
12 1312.175781 -701.934692 0.000954 0.000023 -0.000007 -85.606667 1488.125488
13 1312.175781 -701.934692 0.000954 0.000023 -0.000007 -85.606667 1488.125488
[Head]
11 1406.159424 809.709290 0.001431 0.000008 0.000003 7.767519 1622.625488
12 1406.159424 809.709290 0.001431 0.000008 0.000003 7.767519 1622.625488
13 1406.159424 809.709290 0.001431 0.000008 0.000003 7.767519 1622.625488
[Motor_Bone]
11 1158.364380 -417.834747 0.000477 -0.068707 8.631873 -105.400620 1231.419434
12 1158.364380 -417.834747 0.000477 -0.059733 10.059074 -105.317993 1231.419434
13 1158.364380 -417.834747 0.000477 -0.053629 10.933050 -105.266533 1231.419434
[Ping_Mechanism]
11 1214.569824 -431.648560 -9.596465 0.000103 -0.000053 82.120995 1289.027710
12 1208.157837 -426.995850 -20.687281 0.000103 -0.000053 82.120995 1281.561157
13 1203.310547 -420.374329 -33.293953 0.000103 -0.000053 82.120995 1275.060425
[BN_LookIK]
11 193.241119 1380.371704 -0.002861 0.000000 89.965736 -31.038179 1393.832153
12 193.241119 1380.371704 -0.002861 0.000000 89.965736 -31.038179 1393.832153
13 193.241119 1380.371704 -0.002861 0.000000 89.965736 -31.038179 1393.832153
[bottomMouth]
11 -435.092926 615.759399 -0.000954 -0.000022 0.000016 73.527184 753.966492
12 -435.092926 615.759399 -0.000954 -0.000022 0.000016 73.527184 753.966492
13 -435.092926 615.759399 -0.000954 -0.000022 0.000016 73.527184 753.966492
[L_Mouth01]
11 554.440979 7.658243 838.222046 150.204178 23.759130 109.605339 1005.027161
12 554.440979 7.658243 838.222046 150.204178 23.759130 109.605339 1005.027161
13 554.440979 7.658243 838.222046 150.204178 23.759130 109.605339 1005.027161
[L_mouthFront]
11 551.629089 934.514771 339.150421 0.000081 2.804060 79.119301 1136.941284
12 551.629089 934.514771 339.150421 0.000081 2.804060 79.119301 1136.941284
13 551.629089 934.514771 339.150421 0.000081 2.804060 79.119301 1136.941284
[mouthGun]
11 55.332661 1627.420898 0.000000 0.000023 0.000009 -11.038128 1628.361328
12 55.332661 1627.420898 0.000000 0.000023 0.000009 -11.038128 1628.361328
13 55.332661 1627.420898 0.000000 0.000023 0.000009 -11.038128 1628.361328
[R_Mouth01]
11 554.442383 7.659197 -838.223938 29.795891 -23.759109 109.605331 1005.029541
12 554.442383 7.659197 -838.223938 29.795891 -23.759109 109.605331 1005.029541
13 554.442383 7.659197 -838.223938 29.795891 -23.759109 109.605331 1005.029541
[R_mouthFront]
11 551.629089 934.514282 -339.151367 0.000029 -2.803930 79.119133 1136.941162
12 551.629089 934.514282 -339.151367 0.000029 -2.803930 79.119133 1136.941162
13 551.629089 934.514282 -339.151367 0.000029 -2.803930 79.119133 1136.941162
[TopMouth]
11 461.269867 -56.106091 -0.008583 -0.000059 -0.000268 92.025169 464.669525
12 461.269867 -56.106091 -0.008583 -0.000059 -0.000268 92.025169 464.669525
13 461.269867 -56.106091 -0.008583 -0.000059 -0.000268 92.025169 464.669525
[weapon_bone]
11 -987.239868 1448.372803 0.001431 0.000000 89.965736 -31.038221 1752.833740
12 -987.239868 1448.372803 0.001431 0.000000 89.965736 -31.038221 1752.833740
13 -987.239868 1448.372803 0.001431 0.000000 89.965736 -31.038221 1752.833740
